<svg width="704" height="335" viewBox="0 0 704 335" fill="none" xmlns="http://www.w3.org/2000/svg">
<rect width="704" height="335" fill="#1E1E1E"/>
<g id="Frame 1" clip-path="url(#clip0_0_1)">
<rect width="704" height="335" fill="white"/>
<g id="wingLeft">
<g id="ryellow" filter="url(#filter0_d_0_1)">
<path d="M699.072 40.1328C700.281 34.5033 694.555 29.9028 689.318 32.2964L652.025 49.3419C621.675 63.2134 594.48 83.1384 572.105 107.895L382.218 318C378.672 321.923 382.849 327.947 387.766 326.002L444.259 303.66C486.292 287.036 531.087 278.5 576.289 278.5H635.756C642.826 278.5 648.937 273.563 650.421 266.65L699.072 40.1328Z" fill="url(#paint0_linear_0_1)"/>
</g>
<g id="orange" filter="url(#filter1_d_0_1)">
<path d="M626.986 22.4471C627.951 17.257 623.042 12.9077 618.006 14.4901L568.143 30.1572C493.625 53.5707 442.928 122.641 442.928 200.75V200.75L367.727 312.311C364.659 316.862 370.103 322.316 374.66 319.257L394.699 305.803C443.887 272.781 500.483 252.446 559.439 246.611L574.603 245.11C581.245 244.452 586.653 239.485 587.873 232.923L626.986 22.4471Z" fill="url(#paint1_linear_0_1)"/>
</g>
<g id="red" filter="url(#filter2_d_0_1)">
<path d="M537.828 12.1433C538.624 6.77992 533.282 2.5877 528.261 4.63477L487.073 21.4282C405.394 54.7304 352 134.161 352 222.368V322.636C352 326.295 356.651 327.858 358.861 324.94L363.889 318.301C395.622 276.397 442.323 248.378 494.231 240.101V240.101C500.205 239.148 504.871 234.43 505.759 228.446L537.828 12.1433Z" fill="url(#paint2_linear_0_1)"/>
</g>
</g>
<g id="wingLeft_2">
<g id="lyellow" filter="url(#filter3_d_0_1)">
<path d="M4.92801 40.1328C3.71892 34.5033 9.44499 29.9028 14.6818 32.2964L51.9754 49.3419C82.3247 63.2134 109.52 83.1384 131.895 107.895L321.782 318C325.328 321.923 321.151 327.947 316.234 326.002L259.741 303.66C217.708 287.036 172.913 278.5 127.711 278.5H68.2441C61.1737 278.5 55.0633 273.563 53.5786 266.65L4.92801 40.1328Z" fill="url(#paint3_linear_0_1)"/>
</g>
<g id="green" filter="url(#filter4_d_0_1)">
<path d="M77.0138 22.4471C76.0494 17.257 80.9581 12.9077 85.9943 14.4901L135.857 30.1572C210.375 53.5707 261.072 122.641 261.072 200.75V200.75L336.273 312.311C339.341 316.862 333.897 322.316 329.34 319.257L309.301 305.803C260.113 272.781 203.517 252.446 144.561 246.611L129.397 245.11C122.755 244.452 117.347 239.485 116.127 232.923L77.0138 22.4471Z" fill="url(#paint4_linear_0_1)"/>
</g>
<g id="blue" filter="url(#filter5_d_0_1)">
<path d="M166.172 12.1433C165.376 6.77992 170.718 2.5877 175.739 4.63477L216.927 21.4282C298.606 54.7304 352 134.161 352 222.368V322.636C352 326.295 347.349 327.858 345.139 324.94L340.111 318.301C308.378 276.397 261.677 248.378 209.769 240.101V240.101C203.795 239.148 199.129 234.43 198.241 228.446L166.172 12.1433Z" fill="url(#paint5_linear_0_1)"/>
</g>
</g>
</g>
<defs>
<filter id="filter0_d_0_1" x="376.895" y="31.6483" width="326.34" height="302.731" filterUnits="userSpaceOnUse" color-interpolation-filters="sRGB">
<feFlood flood-opacity="0" result="BackgroundImageFix"/>
<feColorMatrix in="SourceAlpha" type="matrix" values="0 0 0 0 0 0 0 0 0 0 0 0 0 0 0 0 0 0 127 0" result="hardAlpha"/>
<feOffset dy="4"/>
<feGaussianBlur stdDeviation="2"/>
<feComposite in2="hardAlpha" operator="out"/>
<feColorMatrix type="matrix" values="0 0 0 0 0 0 0 0 0 0 0 0 0 0 0 0 0 0 0.25 0"/>
<feBlend mode="normal" in2="BackgroundImageFix" result="effect1_dropShadow_0_1"/>
<feBlend mode="normal" in="SourceGraphic" in2="effect1_dropShadow_0_1" result="shape"/>
</filter>
<filter id="filter1_d_0_1" x="362.832" y="14.1602" width="268.276" height="313.986" filterUnits="userSpaceOnUse" color-interpolation-filters="sRGB">
<feFlood flood-opacity="0" result="BackgroundImageFix"/>
<feColorMatrix in="SourceAlpha" type="matrix" values="0 0 0 0 0 0 0 0 0 0 0 0 0 0 0 0 0 0 127 0" result="hardAlpha"/>
<feOffset dy="4"/>
<feGaussianBlur stdDeviation="2"/>
<feComposite in2="hardAlpha" operator="out"/>
<feColorMatrix type="matrix" values="0 0 0 0 0 0 0 0 0 0 0 0 0 0 0 0 0 0 0.25 0"/>
<feBlend mode="normal" in2="BackgroundImageFix" result="effect1_dropShadow_0_1"/>
<feBlend mode="normal" in="SourceGraphic" in2="effect1_dropShadow_0_1" result="shape"/>
</filter>
<filter id="filter2_d_0_1" x="348" y="4.10608" width="193.908" height="330.355" filterUnits="userSpaceOnUse" color-interpolation-filters="sRGB">
<feFlood flood-opacity="0" result="BackgroundImageFix"/>
<feColorMatrix in="SourceAlpha" type="matrix" values="0 0 0 0 0 0 0 0 0 0 0 0 0 0 0 0 0 0 127 0" result="hardAlpha"/>
<feOffset dy="4"/>
<feGaussianBlur stdDeviation="2"/>
<feComposite in2="hardAlpha" operator="out"/>
<feColorMatrix type="matrix" values="0 0 0 0 0 0 0 0 0 0 0 0 0 0 0 0 0 0 0.25 0"/>
<feBlend mode="normal" in2="BackgroundImageFix" result="effect1_dropShadow_0_1"/>
<feBlend mode="normal" in="SourceGraphic" in2="effect1_dropShadow_0_1" result="shape"/>
</filter>
<filter id="filter3_d_0_1" x="0.764618" y="31.6483" width="326.34" height="302.731" filterUnits="userSpaceOnUse" color-interpolation-filters="sRGB">
<feFlood flood-opacity="0" result="BackgroundImageFix"/>
<feColorMatrix in="SourceAlpha" type="matrix" values="0 0 0 0 0 0 0 0 0 0 0 0 0 0 0 0 0 0 127 0" result="hardAlpha"/>
<feOffset dy="4"/>
<feGaussianBlur stdDeviation="2"/>
<feComposite in2="hardAlpha" operator="out"/>
<feColorMatrix type="matrix" values="0 0 0 0 0 0 0 0 0 0 0 0 0 0 0 0 0 0 0.25 0"/>
<feBlend mode="normal" in2="BackgroundImageFix" result="effect1_dropShadow_0_1"/>
<feBlend mode="normal" in="SourceGraphic" in2="effect1_dropShadow_0_1" result="shape"/>
</filter>
<filter id="filter4_d_0_1" x="72.8917" y="14.1602" width="268.276" height="313.986" filterUnits="userSpaceOnUse" color-interpolation-filters="sRGB">
<feFlood flood-opacity="0" result="BackgroundImageFix"/>
<feColorMatrix in="SourceAlpha" type="matrix" values="0 0 0 0 0 0 0 0 0 0 0 0 0 0 0 0 0 0 127 0" result="hardAlpha"/>
<feOffset dy="4"/>
<feGaussianBlur stdDeviation="2"/>
<feComposite in2="hardAlpha" operator="out"/>
<feColorMatrix type="matrix" values="0 0 0 0 0 0 0 0 0 0 0 0 0 0 0 0 0 0 0.25 0"/>
<feBlend mode="normal" in2="BackgroundImageFix" result="effect1_dropShadow_0_1"/>
<feBlend mode="normal" in="SourceGraphic" in2="effect1_dropShadow_0_1" result="shape"/>
</filter>
<filter id="filter5_d_0_1" x="162.092" y="4.10608" width="193.908" height="330.355" filterUnits="userSpaceOnUse" color-interpolation-filters="sRGB">
<feFlood flood-opacity="0" result="BackgroundImageFix"/>
<feColorMatrix in="SourceAlpha" type="matrix" values="0 0 0 0 0 0 0 0 0 0 0 0 0 0 0 0 0 0 127 0" result="hardAlpha"/>
<feOffset dy="4"/>
<feGaussianBlur stdDeviation="2"/>
<feComposite in2="hardAlpha" operator="out"/>
<feColorMatrix type="matrix" values="0 0 0 0 0 0 0 0 0 0 0 0 0 0 0 0 0 0 0.25 0"/>
<feBlend mode="normal" in2="BackgroundImageFix" result="effect1_dropShadow_0_1"/>
<feBlend mode="normal" in="SourceGraphic" in2="effect1_dropShadow_0_1" result="shape"/>
</filter>
<linearGradient id="paint0_linear_0_1" x1="702" y1="26" x2="368" y2="334" gradientUnits="userSpaceOnUse">
<stop stop-color="#FAFF12"/>
<stop offset="0.5" stop-color="#FE9C03"/>
<stop offset="1" stop-color="#FF8A00"/>
</linearGradient>
<linearGradient id="paint1_linear_0_1" x1="629" y1="11" x2="353" y2="334" gradientUnits="userSpaceOnUse">
<stop stop-color="#FF8A00"/>
<stop offset="0.557292" stop-color="#FF7800"/>
<stop offset="1" stop-color="#FF0000"/>
</linearGradient>
<linearGradient id="paint2_linear_0_1" x1="540" y1="-8.04091e-07" x2="352" y2="334" gradientUnits="userSpaceOnUse">
<stop stop-color="#FE2424"/>
<stop offset="0.734375" stop-color="#BC133E"/>
<stop offset="1" stop-color="#6D005C"/>
</linearGradient>
<linearGradient id="paint3_linear_0_1" x1="1.99999" y1="26" x2="336" y2="334" gradientUnits="userSpaceOnUse">
<stop stop-color="#FAFF00"/>
<stop offset="0.5" stop-color="#EADC00"/>
<stop offset="1" stop-color="#CFA200"/>
</linearGradient>
<linearGradient id="paint4_linear_0_1" x1="78.5" y1="15.5" x2="351" y2="334" gradientUnits="userSpaceOnUse">
<stop stop-color="#8FFF00"/>
<stop offset="1" stop-color="#009918"/>
</linearGradient>
<linearGradient id="paint5_linear_0_1" x1="164" y1="-8.04091e-07" x2="352" y2="334" gradientUnits="userSpaceOnUse">
<stop stop-color="#00FFF0"/>
<stop offset="0.713542" stop-color="#257DCE"/>
<stop offset="0.995199" stop-color="#4310B1"/>
</linearGradient>
<clipPath id="clip0_0_1">
<rect width="704" height="335" fill="white"/>
</clipPath>
</defs>
</svg>
